<mxfile host="app.diagrams.net" modified="2022-06-16T06:22:07.059Z" agent="5.0 (Windows NT 6.1; Win64; x64) AppleWebKit/537.36 (KHTML, like Gecko) Chrome/96.0.4664.45 Safari/537.36" etag="hAWYFuYGwLd9tucevKbV" version="20.0.1" type="github">
  <diagram id="Dr74Nfa-2rwZNSHrZAWI" name="第 1 页">
    <mxGraphModel dx="1346" dy="1875" grid="1" gridSize="10" guides="1" tooltips="1" connect="1" arrows="1" fold="1" page="1" pageScale="1" pageWidth="827" pageHeight="1169" math="0" shadow="0">
      <root>
        <mxCell id="0" />
        <mxCell id="1" parent="0" />
        <mxCell id="zb1QjtV-zfv-W0wiVC0V-11" value="" style="group;fillColor=#00CC00;" vertex="1" connectable="0" parent="1">
          <mxGeometry x="150" y="465" width="450" height="50" as="geometry" />
        </mxCell>
        <mxCell id="zb1QjtV-zfv-W0wiVC0V-2" value="" style="whiteSpace=wrap;html=1;aspect=fixed;" vertex="1" parent="zb1QjtV-zfv-W0wiVC0V-11">
          <mxGeometry width="50" height="50" as="geometry" />
        </mxCell>
        <mxCell id="zb1QjtV-zfv-W0wiVC0V-3" value="" style="whiteSpace=wrap;html=1;aspect=fixed;" vertex="1" parent="zb1QjtV-zfv-W0wiVC0V-11">
          <mxGeometry x="50" width="50" height="50" as="geometry" />
        </mxCell>
        <mxCell id="zb1QjtV-zfv-W0wiVC0V-4" value="" style="whiteSpace=wrap;html=1;aspect=fixed;" vertex="1" parent="zb1QjtV-zfv-W0wiVC0V-11">
          <mxGeometry x="100" width="50" height="50" as="geometry" />
        </mxCell>
        <mxCell id="zb1QjtV-zfv-W0wiVC0V-5" value="" style="whiteSpace=wrap;html=1;aspect=fixed;" vertex="1" parent="zb1QjtV-zfv-W0wiVC0V-11">
          <mxGeometry x="150" width="50" height="50" as="geometry" />
        </mxCell>
        <mxCell id="zb1QjtV-zfv-W0wiVC0V-6" value="" style="whiteSpace=wrap;html=1;aspect=fixed;fillColor=#00CC00;" vertex="1" parent="zb1QjtV-zfv-W0wiVC0V-11">
          <mxGeometry x="200" width="50" height="50" as="geometry" />
        </mxCell>
        <mxCell id="zb1QjtV-zfv-W0wiVC0V-7" value="" style="whiteSpace=wrap;html=1;aspect=fixed;" vertex="1" parent="zb1QjtV-zfv-W0wiVC0V-11">
          <mxGeometry x="250" width="50" height="50" as="geometry" />
        </mxCell>
        <mxCell id="zb1QjtV-zfv-W0wiVC0V-8" value="" style="whiteSpace=wrap;html=1;aspect=fixed;" vertex="1" parent="zb1QjtV-zfv-W0wiVC0V-11">
          <mxGeometry x="300" width="50" height="50" as="geometry" />
        </mxCell>
        <mxCell id="zb1QjtV-zfv-W0wiVC0V-9" value="" style="whiteSpace=wrap;html=1;aspect=fixed;" vertex="1" parent="zb1QjtV-zfv-W0wiVC0V-11">
          <mxGeometry x="350" width="50" height="50" as="geometry" />
        </mxCell>
        <mxCell id="zb1QjtV-zfv-W0wiVC0V-10" value="" style="whiteSpace=wrap;html=1;aspect=fixed;" vertex="1" parent="zb1QjtV-zfv-W0wiVC0V-11">
          <mxGeometry x="400" width="50" height="50" as="geometry" />
        </mxCell>
        <mxCell id="zb1QjtV-zfv-W0wiVC0V-12" value="&lt;span style=&quot;&quot;&gt;sentinel&lt;/span&gt;" style="shape=or;whiteSpace=wrap;html=1;direction=west;fontStyle=1" vertex="1" parent="1">
          <mxGeometry x="80" y="465" width="70" height="50" as="geometry" />
        </mxCell>
        <mxCell id="zb1QjtV-zfv-W0wiVC0V-13" value="&lt;span style=&quot;font-family: &amp;quot;Microsoft YaHei&amp;quot;; font-size: 13px; text-align: start;&quot;&gt;backward&lt;/span&gt;" style="endArrow=classic;html=1;rounded=0;fontStyle=1" edge="1" parent="1">
          <mxGeometry width="50" height="50" relative="1" as="geometry">
            <mxPoint x="330" y="405" as="sourcePoint" />
            <mxPoint x="330" y="465" as="targetPoint" />
          </mxGeometry>
        </mxCell>
        <mxCell id="zb1QjtV-zfv-W0wiVC0V-14" value="forward" style="endArrow=classic;html=1;rounded=0;fontStyle=1" edge="1" parent="1">
          <mxGeometry width="50" height="50" relative="1" as="geometry">
            <mxPoint x="630" y="585" as="sourcePoint" />
            <mxPoint x="630" y="515" as="targetPoint" />
            <Array as="points">
              <mxPoint x="630" y="545" />
            </Array>
          </mxGeometry>
        </mxCell>
        <mxCell id="zb1QjtV-zfv-W0wiVC0V-16" value="" style="group;fillColor=#00CC00;" vertex="1" connectable="0" parent="1">
          <mxGeometry x="150" y="10" width="450" height="50" as="geometry" />
        </mxCell>
        <mxCell id="zb1QjtV-zfv-W0wiVC0V-17" value="" style="whiteSpace=wrap;html=1;aspect=fixed;" vertex="1" parent="zb1QjtV-zfv-W0wiVC0V-16">
          <mxGeometry width="50" height="50" as="geometry" />
        </mxCell>
        <mxCell id="zb1QjtV-zfv-W0wiVC0V-18" value="" style="whiteSpace=wrap;html=1;aspect=fixed;" vertex="1" parent="zb1QjtV-zfv-W0wiVC0V-16">
          <mxGeometry x="50" width="50" height="50" as="geometry" />
        </mxCell>
        <mxCell id="zb1QjtV-zfv-W0wiVC0V-19" value="" style="whiteSpace=wrap;html=1;aspect=fixed;" vertex="1" parent="zb1QjtV-zfv-W0wiVC0V-16">
          <mxGeometry x="100" width="50" height="50" as="geometry" />
        </mxCell>
        <mxCell id="zb1QjtV-zfv-W0wiVC0V-20" value="" style="whiteSpace=wrap;html=1;aspect=fixed;" vertex="1" parent="zb1QjtV-zfv-W0wiVC0V-16">
          <mxGeometry x="150" width="50" height="50" as="geometry" />
        </mxCell>
        <mxCell id="zb1QjtV-zfv-W0wiVC0V-21" value="" style="whiteSpace=wrap;html=1;aspect=fixed;fillColor=#00CC00;" vertex="1" parent="zb1QjtV-zfv-W0wiVC0V-16">
          <mxGeometry x="200" width="50" height="50" as="geometry" />
        </mxCell>
        <mxCell id="zb1QjtV-zfv-W0wiVC0V-22" value="" style="whiteSpace=wrap;html=1;aspect=fixed;" vertex="1" parent="zb1QjtV-zfv-W0wiVC0V-16">
          <mxGeometry x="250" width="50" height="50" as="geometry" />
        </mxCell>
        <mxCell id="zb1QjtV-zfv-W0wiVC0V-23" value="" style="whiteSpace=wrap;html=1;aspect=fixed;" vertex="1" parent="zb1QjtV-zfv-W0wiVC0V-16">
          <mxGeometry x="300" width="50" height="50" as="geometry" />
        </mxCell>
        <mxCell id="zb1QjtV-zfv-W0wiVC0V-24" value="" style="whiteSpace=wrap;html=1;aspect=fixed;" vertex="1" parent="zb1QjtV-zfv-W0wiVC0V-16">
          <mxGeometry x="350" width="50" height="50" as="geometry" />
        </mxCell>
        <mxCell id="zb1QjtV-zfv-W0wiVC0V-25" value="" style="whiteSpace=wrap;html=1;aspect=fixed;" vertex="1" parent="zb1QjtV-zfv-W0wiVC0V-16">
          <mxGeometry x="400" width="50" height="50" as="geometry" />
        </mxCell>
        <mxCell id="zb1QjtV-zfv-W0wiVC0V-26" value="sentinel" style="shape=or;whiteSpace=wrap;html=1;direction=west;fontStyle=1" vertex="1" parent="1">
          <mxGeometry x="80" y="10" width="70" height="50" as="geometry" />
        </mxCell>
        <mxCell id="zb1QjtV-zfv-W0wiVC0V-27" value="&lt;span style=&quot;font-family: &amp;quot;Microsoft YaHei&amp;quot;; font-size: 13px; text-align: start;&quot;&gt;backward&lt;/span&gt;" style="endArrow=classic;html=1;rounded=0;fontStyle=1" edge="1" parent="1">
          <mxGeometry width="50" height="50" relative="1" as="geometry">
            <mxPoint x="114.5" y="-60" as="sourcePoint" />
            <mxPoint x="114.5" as="targetPoint" />
          </mxGeometry>
        </mxCell>
        <mxCell id="zb1QjtV-zfv-W0wiVC0V-28" value="forward" style="endArrow=classic;html=1;rounded=0;fontStyle=1" edge="1" parent="1">
          <mxGeometry width="50" height="50" relative="1" as="geometry">
            <mxPoint x="180" y="130" as="sourcePoint" />
            <mxPoint x="180" y="60" as="targetPoint" />
            <Array as="points">
              <mxPoint x="180" y="90" />
            </Array>
          </mxGeometry>
        </mxCell>
        <mxCell id="zb1QjtV-zfv-W0wiVC0V-29" value="" style="group;fillColor=#00CC00;" vertex="1" connectable="0" parent="1">
          <mxGeometry x="150" y="240" width="450" height="50" as="geometry" />
        </mxCell>
        <mxCell id="zb1QjtV-zfv-W0wiVC0V-30" value="" style="whiteSpace=wrap;html=1;aspect=fixed;" vertex="1" parent="zb1QjtV-zfv-W0wiVC0V-29">
          <mxGeometry width="50" height="50" as="geometry" />
        </mxCell>
        <mxCell id="zb1QjtV-zfv-W0wiVC0V-31" value="" style="whiteSpace=wrap;html=1;aspect=fixed;" vertex="1" parent="zb1QjtV-zfv-W0wiVC0V-29">
          <mxGeometry x="50" width="50" height="50" as="geometry" />
        </mxCell>
        <mxCell id="zb1QjtV-zfv-W0wiVC0V-32" value="" style="whiteSpace=wrap;html=1;aspect=fixed;" vertex="1" parent="zb1QjtV-zfv-W0wiVC0V-29">
          <mxGeometry x="100" width="50" height="50" as="geometry" />
        </mxCell>
        <mxCell id="zb1QjtV-zfv-W0wiVC0V-33" value="" style="whiteSpace=wrap;html=1;aspect=fixed;" vertex="1" parent="zb1QjtV-zfv-W0wiVC0V-29">
          <mxGeometry x="150" width="50" height="50" as="geometry" />
        </mxCell>
        <mxCell id="zb1QjtV-zfv-W0wiVC0V-34" value="" style="whiteSpace=wrap;html=1;aspect=fixed;fillColor=#00CC00;" vertex="1" parent="zb1QjtV-zfv-W0wiVC0V-29">
          <mxGeometry x="200" width="50" height="50" as="geometry" />
        </mxCell>
        <mxCell id="zb1QjtV-zfv-W0wiVC0V-35" value="" style="whiteSpace=wrap;html=1;aspect=fixed;" vertex="1" parent="zb1QjtV-zfv-W0wiVC0V-29">
          <mxGeometry x="250" width="50" height="50" as="geometry" />
        </mxCell>
        <mxCell id="zb1QjtV-zfv-W0wiVC0V-36" value="" style="whiteSpace=wrap;html=1;aspect=fixed;" vertex="1" parent="zb1QjtV-zfv-W0wiVC0V-29">
          <mxGeometry x="300" width="50" height="50" as="geometry" />
        </mxCell>
        <mxCell id="zb1QjtV-zfv-W0wiVC0V-37" value="" style="whiteSpace=wrap;html=1;aspect=fixed;" vertex="1" parent="zb1QjtV-zfv-W0wiVC0V-29">
          <mxGeometry x="350" width="50" height="50" as="geometry" />
        </mxCell>
        <mxCell id="zb1QjtV-zfv-W0wiVC0V-38" value="" style="whiteSpace=wrap;html=1;aspect=fixed;" vertex="1" parent="zb1QjtV-zfv-W0wiVC0V-29">
          <mxGeometry x="400" width="50" height="50" as="geometry" />
        </mxCell>
        <mxCell id="zb1QjtV-zfv-W0wiVC0V-39" value="&lt;span style=&quot;&quot;&gt;sentinel&lt;/span&gt;" style="shape=or;whiteSpace=wrap;html=1;direction=west;fontStyle=1" vertex="1" parent="1">
          <mxGeometry x="80" y="240" width="70" height="50" as="geometry" />
        </mxCell>
        <mxCell id="zb1QjtV-zfv-W0wiVC0V-40" value="&lt;span style=&quot;font-family: &amp;quot;Microsoft YaHei&amp;quot;; font-size: 13px; text-align: start;&quot;&gt;backward&lt;/span&gt;" style="endArrow=classic;html=1;rounded=0;fontStyle=1" edge="1" parent="1">
          <mxGeometry width="50" height="50" relative="1" as="geometry">
            <mxPoint x="114.5" y="180" as="sourcePoint" />
            <mxPoint x="114.5" y="240" as="targetPoint" />
          </mxGeometry>
        </mxCell>
        <mxCell id="zb1QjtV-zfv-W0wiVC0V-41" value="forward" style="endArrow=classic;html=1;rounded=0;fontStyle=1" edge="1" parent="1">
          <mxGeometry width="50" height="50" relative="1" as="geometry">
            <mxPoint x="420" y="360" as="sourcePoint" />
            <mxPoint x="420" y="290" as="targetPoint" />
            <Array as="points">
              <mxPoint x="420" y="320" />
            </Array>
          </mxGeometry>
        </mxCell>
        <mxCell id="zb1QjtV-zfv-W0wiVC0V-42" value="" style="shape=curlyBracket;whiteSpace=wrap;html=1;rounded=1;fillColor=#00CC00;direction=south;" vertex="1" parent="1">
          <mxGeometry x="80" y="160" width="370" height="20" as="geometry" />
        </mxCell>
        <mxCell id="zb1QjtV-zfv-W0wiVC0V-43" value="n + 1" style="text;html=1;strokeColor=none;fillColor=none;align=center;verticalAlign=middle;whiteSpace=wrap;rounded=0;fontStyle=1" vertex="1" parent="1">
          <mxGeometry x="235" y="140" width="60" height="30" as="geometry" />
        </mxCell>
        <mxCell id="zb1QjtV-zfv-W0wiVC0V-44" value="" style="shape=curlyBracket;whiteSpace=wrap;html=1;rounded=1;fillColor=#00CC00;direction=south;" vertex="1" parent="1">
          <mxGeometry x="80" y="-70" width="120" height="20" as="geometry" />
        </mxCell>
        <mxCell id="zb1QjtV-zfv-W0wiVC0V-45" value="1" style="text;html=1;strokeColor=none;fillColor=none;align=center;verticalAlign=middle;whiteSpace=wrap;rounded=0;fontStyle=1" vertex="1" parent="1">
          <mxGeometry x="110" y="-90" width="60" height="30" as="geometry" />
        </mxCell>
        <mxCell id="zb1QjtV-zfv-W0wiVC0V-46" value="" style="shape=curlyBracket;whiteSpace=wrap;html=1;rounded=1;fillColor=#00CC00;direction=south;" vertex="1" parent="1">
          <mxGeometry x="347.5" y="-72.5" width="250" height="20" as="geometry" />
        </mxCell>
        <mxCell id="zb1QjtV-zfv-W0wiVC0V-47" value="n" style="text;html=1;strokeColor=none;fillColor=none;align=center;verticalAlign=middle;whiteSpace=wrap;rounded=0;fontStyle=1" vertex="1" parent="1">
          <mxGeometry x="442.5" y="-97.5" width="60" height="30" as="geometry" />
        </mxCell>
        <mxCell id="zb1QjtV-zfv-W0wiVC0V-48" value="" style="shape=curlyBracket;whiteSpace=wrap;html=1;rounded=1;fillColor=#00CC00;direction=south;" vertex="1" parent="1">
          <mxGeometry x="295" y="395" width="355" height="20" as="geometry" />
        </mxCell>
        <mxCell id="zb1QjtV-zfv-W0wiVC0V-49" value="n + 1" style="text;html=1;strokeColor=none;fillColor=none;align=center;verticalAlign=middle;whiteSpace=wrap;rounded=0;fontStyle=1" vertex="1" parent="1">
          <mxGeometry x="450" y="375" width="60" height="30" as="geometry" />
        </mxCell>
        <mxCell id="zb1QjtV-zfv-W0wiVC0V-53" value="" style="shape=flexArrow;endArrow=classic;html=1;rounded=0;dashed=1;dashPattern=1 1;fontStyle=1;strokeWidth=2;" edge="1" parent="1">
          <mxGeometry width="50" height="50" relative="1" as="geometry">
            <mxPoint x="210" y="100" as="sourcePoint" />
            <mxPoint x="310" y="100" as="targetPoint" />
          </mxGeometry>
        </mxCell>
        <mxCell id="zb1QjtV-zfv-W0wiVC0V-54" value="" style="shape=flexArrow;endArrow=classic;html=1;rounded=0;dashed=1;dashPattern=1 1;fontStyle=1;strokeWidth=2;" edge="1" parent="1">
          <mxGeometry width="50" height="50" relative="1" as="geometry">
            <mxPoint x="450" y="330" as="sourcePoint" />
            <mxPoint x="550" y="330" as="targetPoint" />
          </mxGeometry>
        </mxCell>
        <mxCell id="zb1QjtV-zfv-W0wiVC0V-55" value="" style="shape=flexArrow;endArrow=classic;html=1;rounded=0;dashed=1;dashPattern=1 1;fontStyle=1;strokeWidth=2;" edge="1" parent="1">
          <mxGeometry width="50" height="50" relative="1" as="geometry">
            <mxPoint x="160" y="210" as="sourcePoint" />
            <mxPoint x="260" y="210" as="targetPoint" />
          </mxGeometry>
        </mxCell>
      </root>
    </mxGraphModel>
  </diagram>
</mxfile>
